<svg width="16" height="13" viewBox="0 0 16 13" fill="none" xmlns="http://www.w3.org/2000/svg">
<path d="M0 10.9388C0 11.6635 0.58202 12.2514 1.29939 12.2514H14.2933C15.0107 12.2514 15.5927 11.6635 15.5927 10.9388V6.12572H0V10.9388ZM5.19758 9.07919C5.19758 8.8987 5.34376 8.75102 5.52242 8.75102H9.20404C9.38271 8.75102 9.52889 8.8987 9.52889 9.07919V10.1731C9.52889 10.3536 9.38271 10.5012 9.20404 10.5012H5.52242C5.34376 10.5012 5.19758 10.3536 5.19758 10.1731V9.07919ZM1.73253 9.07919C1.73253 8.8987 1.87871 8.75102 2.05737 8.75102H4.00646C4.18513 8.75102 4.33131 8.8987 4.33131 9.07919V10.1731C4.33131 10.3536 4.18513 10.5012 4.00646 10.5012H2.05737C1.87871 10.5012 1.73253 10.3536 1.73253 10.1731V9.07919ZM15.5927 1.31265V2.62531H0V1.31265C0 0.587959 0.58202 0 1.29939 0H14.2933C15.0107 0 15.5927 0.587959 15.5927 1.31265Z" fill="#EE4874"/>
</svg>
