<?xml version="1.0" encoding="utf-8"?>
<!-- Generator: Adobe Illustrator 18.1.1, SVG Export Plug-In . SVG Version: 6.00 Build 0)  -->
<svg version="1.1" id="Слой_1" xmlns="http://www.w3.org/2000/svg" xmlns:xlink="http://www.w3.org/1999/xlink" x="0px" y="0px"
	 viewBox="-237 239 24 24" enable-background="new -237 239 24 24" xml:space="preserve">
<path fill="#262626" d="M-217.1,246.4c0-1.8-1.5-3.3-3.3-3.3h-9.2c-1.8,0-3.3,1.5-3.3,3.3v9.2c0,1.8,1.5,3.3,3.3,3.3h9.2
	c1.8,0,3.3-1.5,3.3-3.3V246.4z M-229.6,242.1h9.2c2.4,0,4.4,2,4.4,4.4v9.2c0,2.4-2,4.4-4.4,4.4h-9.2c-2.4,0-4.4-2-4.4-4.4v-9.2
	C-234,244-232,242.1-229.6,242.1z M-220.2,249L-220.2,249l-6,5.8c0,0,0,0,0,0c-0.1,0.1-0.3,0.2-0.5,0.2c-0.2,0-0.4-0.1-0.5-0.2
	c0,0,0,0,0,0l-2.4-2.3c-0.3-0.3-0.3-0.7,0-1c0.3-0.3,0.7-0.3,1,0l1.9,1.8l5.4-5.3l0,0c0.3-0.3,0.8-0.3,1,0l0,0
	C-219.9,248.3-219.9,248.7-220.2,249z"/>
</svg>
