<?xml version="1.0" encoding="utf-8"?>
<svg version="1.1" id="Слой_1" xmlns="http://www.w3.org/2000/svg" xmlns:xlink="http://www.w3.org/1999/xlink" x="0px" y="0px"
	 viewBox="-235 237 28 28" enable-background="new -235 237 28 28" xml:space="preserve">
<path fill="#42507F" d="M-221,237c-7.7,0-14,6.3-14,14s6.3,14,14,14s14-6.3,14-14S-213.3,237-221,237z M-220.9,248.6v1.6h-4.7
	c0,0.3-0.1,0.6-0.1,0.9s0,0.6,0.1,0.9h4.7v1.6h-4.3c0.4,0.8,0.9,1.5,1.7,1.9c0.7,0.5,1.6,0.7,2.6,0.7c0.8,0,1.6-0.2,2.2-0.5
	c0.6-0.4,1.1-0.9,1.5-1.6h2.7c-0.5,1.3-1.4,2.4-2.5,3.1c-1.1,0.7-2.5,1.1-3.9,1.1c-1.6,0-2.9-0.4-4.2-1.3c-1.2-0.9-2.1-2-2.5-3.4
	h-1.8v-1.6h1.5c0-0.4,0-0.7,0-0.9c0-0.2,0-0.5,0-0.9h-1.5v-1.6h1.8c0.5-1.4,1.3-2.5,2.5-3.4c1.2-0.9,2.6-1.3,4.2-1.3
	c1.5,0,2.8,0.4,3.9,1.1c1.2,0.7,2,1.7,2.5,3.1h-2.7c-0.4-0.7-0.9-1.2-1.5-1.6c-0.6-0.4-1.4-0.5-2.2-0.5c-1,0-1.8,0.2-2.6,0.7
	c-0.7,0.5-1.3,1.1-1.7,1.9H-220.9z"/>
</svg>
