<?xml version="1.0" encoding="utf-8"?>
<!-- Generator: Adobe Illustrator 18.1.1, SVG Export Plug-In . SVG Version: 6.00 Build 0)  -->
<svg version="1.1" id="Слой_1" xmlns="http://www.w3.org/2000/svg" xmlns:xlink="http://www.w3.org/1999/xlink" x="0px" y="0px"
	 viewBox="-235 237 28 28" enable-background="new -235 237 28 28" xml:space="preserve">
<path fill="#FB4B69" d="M-221,237c-7.7,0-14,6.3-14,14s6.3,14,14,14s14-6.3,14-14S-213.3,237-221,237z M-215.8,258h-9.3l-0.4-1.2
	c0.6-0.6,1-1.2,1.2-1.8c0.3-0.6,0.4-1.3,0.4-2.2c0-0.3,0-0.5-0.1-0.8h-2.2v-1.6h1.7c-0.3-0.8-0.4-1.7-0.4-2.4c0-0.9,0.2-1.7,0.6-2.3
	s0.9-1.2,1.6-1.5c0.7-0.4,1.5-0.5,2.4-0.5c1.4,0,2.5,0.4,3.2,1.2c0.7,0.8,1.1,1.8,1.1,3.1h-2.1c0-0.7-0.2-1.3-0.6-1.7
	c-0.4-0.4-1-0.6-1.7-0.6c-0.7,0-1.3,0.2-1.7,0.6c-0.4,0.4-0.6,1.1-0.6,1.9c0,0.4,0,0.8,0.1,1.1c0.1,0.4,0.2,0.8,0.3,1.2h3.9v1.6
	h-3.4c0.1,0.3,0.1,0.6,0.1,0.9c0,1.3-0.4,2.4-1.3,3.4h7.2V258z"/>
</svg>
