<?xml version="1.0" encoding="utf-8"?>
<!-- Generator: Adobe Illustrator 18.1.1, SVG Export Plug-In . SVG Version: 6.00 Build 0)  -->
<svg version="1.1" id="Слой_1" xmlns="http://www.w3.org/2000/svg" xmlns:xlink="http://www.w3.org/1999/xlink" x="0px" y="0px"
	 viewBox="-235 237 28 28" enable-background="new -235 237 28 28" xml:space="preserve">
<path fill="#FFAC30" d="M-219.7,250.1l0.5,1.7h-2.5l0.5-1.7H-219.7z M-225.5,251.9h2l0.5-1.7h-2.8L-225.5,251.9z M-220.5,247.3
	l-0.5,2h1.1L-220.5,247.3z M-224.6,255.8l0.8-3.1h-1.5L-224.6,255.8z M-207.4,254.4c-1.9,7.5-9.5,12.1-17,10.2
	c-7.5-1.9-12.1-9.5-10.2-17c1.9-7.5,9.5-12.1,17-10.2C-210.1,239.3-205.5,246.9-207.4,254.4z M-213.4,251.9l0.4-1.7h2.6
	c0.2,0,0.4-0.2,0.4-0.4c0-0.2-0.2-0.4-0.4-0.4h-2.3l0.5-2.1c0.1-0.5,0.2-0.9,0.2-1.2c0-0.3-0.1-0.5-0.3-0.7
	c-0.2-0.2-0.4-0.3-0.7-0.3c-0.3,0-0.5,0.1-0.6,0.2c-0.2,0.2-0.3,0.3-0.3,0.5c-0.1,0.2-0.2,0.6-0.2,1l-0.6,2.6h-3.2l-0.6-2
	c-0.2-0.6-0.3-1.1-0.4-1.3c-0.1-0.2-0.2-0.4-0.5-0.6c-0.2-0.2-0.5-0.3-0.9-0.3c-0.4,0-0.7,0.1-0.9,0.3c-0.2,0.2-0.4,0.4-0.5,0.7
	c-0.1,0.3-0.2,0.7-0.4,1.3l-0.5,2h-3.2l-0.6-2.6c-0.1-0.6-0.3-1.1-0.4-1.4c0-0.1-0.2-0.3-0.8-0.3c-0.3,0-0.5,0.1-0.7,0.3
	c-0.2,0.2-0.3,0.4-0.3,0.7c0,0.3,0.1,0.7,0.2,1.2l0.5,2.1h-2.3c-0.2,0-0.4,0.2-0.4,0.4c0,0.2,0.2,0.4,0.4,0.4h2.6l0.4,1.7h-3
	c-0.2,0-0.4,0.2-0.4,0.4c0,0.2,0.2,0.4,0.4,0.4h3.2l0.9,3.8c0.1,0.3,0.1,0.6,0.2,0.9c0.1,0.3,0.2,0.6,0.3,0.8
	c0.1,0.2,0.3,0.3,0.4,0.5c0.2,0.1,0.4,0.2,0.7,0.2c0.4,0,0.6-0.1,0.9-0.3c0.2-0.2,0.4-0.4,0.5-0.6c0.1-0.3,0.2-0.7,0.4-1.3l1-3.8
	h2.9l1,3.8c0.2,0.6,0.3,1.1,0.4,1.3c0.1,0.2,0.2,0.4,0.5,0.6c0.2,0.2,0.5,0.3,0.9,0.3c0.4,0,0.7-0.1,0.9-0.3
	c0.2-0.2,0.4-0.4,0.5-0.7c0.1-0.3,0.2-0.7,0.4-1.4l0.9-3.7h3.2c0.2,0,0.4-0.2,0.4-0.4c0-0.2-0.2-0.4-0.4-0.4H-213.4z M-217.4,251.9
	h2l0.4-1.7h-2.8L-217.4,251.9z M-216.4,255.8l0.7-3.1h-1.5L-216.4,255.8z"/>
</svg>
