<?xml version="1.0" encoding="utf-8"?>
<!-- Generator: Adobe Illustrator 18.1.1, SVG Export Plug-In . SVG Version: 6.00 Build 0)  -->
<svg version="1.1" id="Слой_1" xmlns="http://www.w3.org/2000/svg" xmlns:xlink="http://www.w3.org/1999/xlink" x="0px" y="0px"
	 viewBox="-235 237 28 28" enable-background="new -235 237 28 28" xml:space="preserve">
<path fill="#F5855C" d="M-218.9,252.9c0.3,0.3,0.5,0.7,0.5,1.2c0,0.5-0.2,1-0.5,1.4c-0.3,0.4-0.8,0.6-1.4,0.7v-4.1
	C-219.7,252.4-219.2,252.6-218.9,252.9z M-223.5,247.8c0,0.5,0.2,1,0.5,1.3c0.3,0.3,0.8,0.6,1.4,0.7v-4c-0.6,0.1-1,0.3-1.4,0.6
	C-223.3,246.8-223.5,247.3-223.5,247.8z M-207,251c0,7.7-6.3,14-14,14s-14-6.3-14-14s6.3-14,14-14S-207,243.3-207,251z M-216.1,254
	c0-0.9-0.2-1.6-0.6-2.1c-0.4-0.5-0.9-0.9-1.4-1.1c-0.6-0.2-1.3-0.5-2.2-0.7v-4.3c0.5,0.1,0.8,0.3,1.1,0.7c0.3,0.3,0.4,0.7,0.5,1.1
	h2.4c-0.1-1.1-0.5-2-1.2-2.6c-0.7-0.6-1.6-1-2.8-1.1v-1.6h-1.3v1.6c-1.3,0.1-2.3,0.5-3,1.3c-0.8,0.7-1.2,1.6-1.2,2.7
	c0,0.9,0.2,1.6,0.6,2.1c0.4,0.5,0.9,0.9,1.4,1.1c0.6,0.2,1.3,0.5,2.2,0.7v4.4c-0.5-0.1-1-0.3-1.3-0.6c-0.3-0.3-0.5-0.8-0.5-1.3h-2.4
	c0,1.1,0.4,2,1.2,2.6s1.8,1.1,3,1.2v1.6h1.3v-1.6c0.9-0.1,1.6-0.3,2.2-0.7c0.6-0.4,1.1-0.9,1.4-1.5
	C-216.3,255.3-216.1,254.7-216.1,254z"/>
</svg>
