<svg width="39" height="26" viewBox="0 0 39 26" fill="none" xmlns="http://www.w3.org/2000/svg">
<path d="M19.4307 1.53391e-05L0 19.4307L6.47688 25.9075L25.9075 6.4769L19.4307 1.53391e-05Z" fill="#EE4874"/>
<path d="M19.4307 1.53391e-05L0 19.4307L6.47688 25.9075L25.9075 6.4769L19.4307 1.53391e-05Z" fill="#EE4874"/>
<path d="M25.907 6.47635L12.9532 19.4301L19.4301 25.907L32.3839 12.9532L25.907 6.47635Z" fill="#F5855C"/>
<path d="M25.907 6.47617L12.9532 19.4299L19.4301 25.9068L32.3838 12.953L25.907 6.47617Z" fill="#F5855C"/>
<path d="M32.3847 12.9539L25.9078 19.4308L32.3847 25.9077L38.8615 19.4308L32.3847 12.9539Z" fill="#FDB515"/>
<path d="M32.3847 12.9538L25.9078 19.4307L32.3847 25.9076L38.8615 19.4307L32.3847 12.9538Z" fill="#FDB515"/>
</svg>
