<svg width="24" height="24" viewBox="0 0 24 24" fill="none" xmlns="http://www.w3.org/2000/svg">
<path d="M16.3995 17.9081C16.1787 17.9081 15.9995 17.7497 15.9995 17.528V17.488C15.9995 17.2672 16.1787 17.088 16.3995 17.088C16.6203 17.088 16.7995 17.2672 16.7995 17.488C16.7995 17.7089 16.6203 17.9081 16.3995 17.9081Z" fill="#262626"/>
<path d="M16.3996 20.8001H13.1996C12.9788 20.8001 12.7996 20.6209 12.7996 20.4001V19.1145C11.8164 19.2273 10.6132 19.2329 9.59961 19.1041V20.4001C9.59961 20.6209 9.42041 20.8001 9.19961 20.8001H5.99961C5.77881 20.8001 5.59961 20.6209 5.59961 20.4001V17.6641C4.24841 16.7497 3.59081 15.6809 3.34521 15.2001H1.99961C1.77881 15.2001 1.59961 15.0209 1.59961 14.8001V11.6001C1.59961 11.3793 1.77881 11.2001 1.99961 11.2001H3.32761C3.50281 10.8097 3.91161 10.0729 4.74121 9.33692L4.01641 6.91532C3.98041 6.79372 4.00281 6.66252 4.07881 6.56172C4.15401 6.46012 4.27321 6.40012 4.39961 6.40012C5.47801 6.40012 7.34681 6.97372 7.90361 8.01132C8.00841 8.20572 7.93561 8.44812 7.74041 8.55292C7.54441 8.65852 7.30361 8.58492 7.19881 8.38972C6.91561 7.86172 5.85881 7.39612 4.95161 7.24892L5.58281 9.35772C5.62921 9.51212 5.57801 9.68012 5.45241 9.78252C4.30281 10.7225 3.98521 11.7081 3.98201 11.7185C3.93001 11.8841 3.77481 12.0001 3.59961 12.0001H2.39961V14.4001H3.59961C3.76361 14.4001 3.91161 14.5017 3.97241 14.6545C3.97721 14.6681 4.53561 16.0425 6.21481 17.1105C6.33001 17.1841 6.39961 17.3113 6.39961 17.4481V20.0001H8.79961V18.6401C8.79961 18.5225 8.85161 18.4097 8.94201 18.3337C9.03241 18.2577 9.15241 18.2257 9.26761 18.2457C10.4588 18.4521 11.9964 18.4433 13.1356 18.2609C13.2516 18.2417 13.3692 18.2761 13.458 18.3513C13.5484 18.4273 13.5996 18.5385 13.5996 18.6561V20.0001H15.9996V17.5281C15.9996 17.3921 16.0684 17.2657 16.1828 17.1921C18.1836 15.9017 18.3996 13.9705 18.3996 13.2001C18.3996 12.4577 17.918 10.2505 15.7212 8.96572C15.5308 8.85372 15.4668 8.60892 15.578 8.41852C15.69 8.22732 15.9332 8.16332 16.1252 8.27532C18.6476 9.75052 19.1996 12.3305 19.1996 13.2001C19.1996 14.0777 18.9612 16.2401 16.7996 17.7417V20.4001C16.7996 20.6209 16.6204 20.8001 16.3996 20.8001Z" fill="#262626"/>
<path d="M14.8802 10.2719C14.8194 10.2719 14.7578 10.2583 14.6994 10.2287C13.8754 9.81192 12.833 9.59992 11.5994 9.59992C10.301 9.59992 9.15703 9.76552 8.19944 10.0919C7.98984 10.1639 7.76264 10.0511 7.69144 9.84232C7.62024 9.63272 7.73144 9.40552 7.94104 9.33432C8.98184 8.97993 10.213 8.79993 11.5994 8.79993C12.9594 8.79993 14.1242 9.04073 15.0618 9.51512C15.2586 9.61512 15.3378 9.85592 15.2378 10.0527C15.1666 10.1919 15.0266 10.2719 14.8802 10.2719Z" fill="#262626"/>
<path d="M13.4798 9.78404C13.3558 9.78404 13.2326 9.72644 13.155 9.61764C13.0262 9.43844 13.067 9.18884 13.2462 9.05924C13.9686 8.53924 14.3998 7.69444 14.3998 6.80004C14.3998 5.25604 13.1438 4.00004 11.5998 4.00004C10.0558 4.00004 8.79976 5.25604 8.79976 6.80004C8.79976 7.68644 9.19976 8.49444 9.89576 9.01604C10.0726 9.14884 10.1086 9.39924 9.97656 9.57604C9.84376 9.75284 9.59336 9.78884 9.41656 9.65684C8.51656 8.98244 7.99976 7.94084 7.99976 6.80004C7.99976 4.81524 9.61496 3.20004 11.5998 3.20004C13.5846 3.20004 15.1998 4.81524 15.1998 6.80004C15.1998 7.95044 14.6438 9.03844 13.7134 9.70884C13.6422 9.75924 13.5606 9.78404 13.4798 9.78404Z" fill="#262626"/>
<path d="M5.59956 12.8C6.04139 12.8 6.39956 12.4418 6.39956 12C6.39956 11.5582 6.04139 11.2 5.59956 11.2C5.15773 11.2 4.79956 11.5582 4.79956 12C4.79956 12.4418 5.15773 12.8 5.59956 12.8Z" fill="#262626"/>
<path d="M18.7992 13.6C18.5784 13.6 18.3992 13.4208 18.3992 13.2C18.3992 12.9792 18.5784 12.8 18.7992 12.8C19.0264 12.8 19.3208 12.696 19.6144 12.5336C19.3192 12.0704 19.1992 11.532 19.1992 11.2C19.1992 10.1384 19.6032 9.59996 20.3992 9.59996C21.5992 9.59996 21.5992 10.7208 21.5992 11.2C21.5992 11.6832 21.3024 12.1704 20.8832 12.5776C21.1496 12.648 21.4672 12.6 21.8344 12.4352C22.036 12.3416 22.2728 12.4344 22.3632 12.6352C22.4544 12.836 22.3648 13.0736 22.1632 13.164C21.2256 13.5864 20.58 13.3848 20.2024 13.1408C20.1936 13.1352 20.1856 13.1296 20.1768 13.124C19.6992 13.4168 19.1896 13.6 18.7992 13.6ZM20.3992 10.4C20.212 10.4 19.9992 10.4 19.9992 11.2C19.9992 11.3976 20.0808 11.76 20.2656 12.0672C20.576 11.784 20.7992 11.4656 20.7992 11.2C20.7992 10.4312 20.6832 10.4 20.3992 10.4Z" fill="#262626"/>
</svg>
