<?xml version="1.0" encoding="utf-8"?>
<!-- Generator: Adobe Illustrator 18.1.1, SVG Export Plug-In . SVG Version: 6.00 Build 0)  -->
<svg version="1.1" id="Слой_1" xmlns="http://www.w3.org/2000/svg" xmlns:xlink="http://www.w3.org/1999/xlink" x="0px" y="0px"
	 viewBox="0 0 16 16" enable-background="new 0 0 16 16" xml:space="preserve">
<path fill="#262626" d="M12.6,9.1c-1.1,0-2.2,0.6-2.8,1.4L6.7,9c0.1-0.3,0.2-0.7,0.2-1c0-0.4-0.1-0.7-0.2-1l3.1-1.6
	c0.6,0.9,1.6,1.4,2.8,1.4c1.9,0,3.4-1.5,3.4-3.4S14.5,0,12.6,0S9.1,1.5,9.1,3.4c0,0.4,0.1,0.7,0.2,1L6.2,6C5.6,5.1,4.6,4.6,3.4,4.6
	C1.5,4.6,0,6.1,0,8s1.5,3.4,3.4,3.4c1.1,0,2.1-0.6,2.8-1.4l3.1,1.5c-0.1,0.3-0.1,0.7-0.1,1c0,1.9,1.5,3.4,3.4,3.4s3.4-1.5,3.4-3.4
	S14.5,9.1,12.6,9.1z M12.6,1.1c1.3,0,2.3,1,2.3,2.3s-1,2.3-2.3,2.3s-2.3-1-2.3-2.3S11.3,1.1,12.6,1.1z M3.4,10.3
	c-1.3,0-2.3-1-2.3-2.3s1-2.3,2.3-2.3s2.3,1,2.3,2.3S4.7,10.3,3.4,10.3z M12.6,14.9c-1.3,0-2.3-1-2.3-2.3s1-2.3,2.3-2.3
	s2.3,1,2.3,2.3S13.8,14.9,12.6,14.9z"/>
</svg>
